<?xml version="1.0" encoding="UTF-8"?>
<svg version="1.1" xmlns="http://www.w3.org/2000/svg" width="1024" height="1024">
<path d="M0 0 C0.99 0 1.98 0 3 0 C3.04898437 0.68964844 3.09796875 1.37929687 3.1484375 2.08984375 C3.58167021 7.5351308 4.30180687 12.67957126 5.58984375 17.984375 C6.13782303 20.67730176 6.14032894 23.26358562 6 26 C6.66 26 7.32 26 8 26 C8.33 28.31 8.66 30.62 9 33 C9.66 33 10.32 33 11 33 C11.33 34.98 11.66 36.96 12 39 C12.66 39 13.32 39 14 39 C14.33 40.65 14.66 42.3 15 44 C15.66 44 16.32 44 17 44 C17.33 44.99 17.66 45.98 18 47 C18.825 47.598125 19.65 48.19625 20.5 48.8125 C23 51 23 51 24 57 C-52.56 57 -129.12 57 -208 57 C-208 57.66 -208 58.32 -208 59 C-212.62 59.33 -217.24 59.66 -222 60 C-222 60.66 -222 61.32 -222 62 C-225.465 62.495 -225.465 62.495 -229 63 C-229 63.66 -229 64.32 -229 65 C-231.64 65.33 -234.28 65.66 -237 66 C-237 66.66 -237 67.32 -237 68 C-238.485 68.495 -238.485 68.495 -240 69 C-240.33 69.66 -240.66 70.32 -241 71 C-243.5625 71.625 -243.5625 71.625 -246 72 C-246.495 73.485 -246.495 73.485 -247 75 C-247.66 75 -248.32 75 -249 75 C-249.495 76.485 -249.495 76.485 -250 78 C-250.66 78 -251.32 78 -252 78 C-252.12375 78.804375 -252.2475 79.60875 -252.375 80.4375 C-252.58125 81.283125 -252.7875 82.12875 -253 83 C-253.99 83.495 -253.99 83.495 -255 84 C-255.78015621 85.82510997 -256.47795406 87.68606676 -257.125 89.5625 C-257.65480469 91.08037109 -257.65480469 91.08037109 -258.1953125 92.62890625 C-258.46085937 93.41136719 -258.72640625 94.19382812 -259 95 C-259.66 95 -260.32 95 -261 95 C-261.495 100.94 -261.495 100.94 -262 107 C-262.66 107 -263.32 107 -264 107 C-264.05871267 171.70546862 -263.96070214 236.40991021 -263.71246719 301.11494255 C-263.65904137 315.06885912 -263.61105875 329.02276367 -263.57250018 342.97672763 C-263.54144712 354.16238822 -263.50281482 365.34800397 -263.45720994 376.53361636 C-263.43211277 382.73738668 -263.41026964 388.94112665 -263.39665604 395.1449337 C-263.38390107 400.89251426 -263.36192038 406.63998336 -263.33261681 412.38750267 C-263.32352766 414.49027816 -263.3178477 416.5930715 -263.31578636 418.69586563 C-263.31247758 421.55560587 -263.29704409 424.41502818 -263.2784729 427.27470398 C-263.28040763 428.10873314 -263.28234237 428.9427623 -263.28433573 429.80206507 C-263.24593387 433.73454885 -263.06042991 436.61616213 -261 440 C-260.875 442.75 -260.875 442.75 -261 445 C-260.34 445 -259.68 445 -259 445 C-258.67 446.98 -258.34 448.96 -258 451 C-257.34 451 -256.68 451 -256 451 C-255.67 452.65 -255.34 454.3 -255 456 C-254.34 456 -253.68 456 -253 456 C-252.505 457.485 -252.505 457.485 -252 459 C-251.175 459.61875 -250.35 460.2375 -249.5 460.875 C-246.68075768 463.27135597 -246.30026863 464.3967764 -246 468 C-245.01 468.33 -244.02 468.66 -243 469 C-243 469.66 -243 470.32 -243 471 C-242.01 471.33 -241.02 471.66 -240 472 C-240 472.66 -240 473.32 -240 474 C-239.195625 474.12375 -238.39125 474.2475 -237.5625 474.375 C-236.2940625 474.684375 -236.2940625 474.684375 -235 475 C-234.67 475.66 -234.34 476.32 -234 477 C-233.01 477.33 -232.02 477.66 -231 478 C-231 478.66 -231 479.32 -231 480 C-229.35 480.33 -227.7 480.66 -226 481 C-226 481.66 -226 482.32 -226 483 C-223.69 483.33 -221.38 483.66 -219 484 C-219 484.66 -219 485.32 -219 486 C-214.05 486.33 -209.1 486.66 -204 487 C-204 487.66 -204 488.32 -204 489 C5.55 489 215.1 489 431 489 C431 488.34 431 487.68 431 487 C434.96 486.67 438.92 486.34 443 486 C443 485.34 443 484.68 443 484 C445.64 483.67 448.28 483.34 451 483 C451 482.34 451 481.68 451 481 C452.98 480.67 454.96 480.34 457 480 C457 479.34 457 478.68 457 478 C457.56589844 477.73445313 458.13179687 477.46890625 458.71484375 477.1953125 C459.44832031 476.84210938 460.18179688 476.48890625 460.9375 476.125 C461.66839844 475.77695312 462.39929688 475.42890625 463.15234375 475.0703125 C465.16332459 474.1315023 465.16332459 474.1315023 466 472 C468.5625 471.375 468.5625 471.375 471 471 C471.33 470.01 471.66 469.02 472 468 C472.66 468 473.32 468 474 468 C474 467.34 474 466.68 474 466 C474.99 465.67 475.98 465.34 477 465 C477.33 464.01 477.66 463.02 478 462 C478.66 462 479.32 462 480 462 C480.33 461.01 480.66 460.02 481 459 C481.66 459 482.32 459 483 459 C483.33 457.35 483.66 455.7 484 454 C484.66 454 485.32 454 486 454 C486.33 452.35 486.66 450.7 487 449 C487.66 449 488.32 449 489 449 C489.33 447.02 489.66 445.04 490 443 C490.66 443 491.32 443 492 443 C492.33 440.69 492.66 438.38 493 436 C493.66 436 494.32 436 495 436 C495 328.42 495 220.84 495 110 C494.34 110 493.68 110 493 110 C492.67 107.03 492.34 104.06 492 101 C491.34 101 490.68 101 490 101 C489.67 98.69 489.34 96.38 489 94 C488.34 94 487.68 94 487 94 C486.73445312 93.28972656 486.46890625 92.57945312 486.1953125 91.84765625 C485.84210937 90.92855469 485.48890625 90.00945312 485.125 89.0625 C484.60292969 87.68771484 484.60292969 87.68771484 484.0703125 86.28515625 C483.2180914 83.85058944 483.2180914 83.85058944 481 83 C480.375 80.4375 480.375 80.4375 480 78 C479.01 77.67 478.02 77.34 477 77 C477 76.34 477 75.68 477 75 C476.01 74.67 475.02 74.34 474 74 C474 73.34 474 72.68 474 72 C473.01 71.67 472.02 71.34 471 71 C471 70.34 471 69.68 471 69 C468.525 68.505 468.525 68.505 466 68 C466 67.34 466 66.68 466 66 C464.02 65.67 462.04 65.34 460 65 C460 64.34 460 63.68 460 63 C456.04 62.505 456.04 62.505 452 62 C452 61.34 452 60.68 452 60 C448.7 59.67 445.4 59.34 442 59 C442 58.34 442 57.68 442 57 C363.79 57 285.58 57 205 57 C205 56.01 205 55.02 205 54 C205.66 54 206.32 54 207 54 C207.33 52.68 207.66 51.36 208 50 C208.66 50 209.32 50 210 50 C210.12375 49.195625 210.2475 48.39125 210.375 47.5625 C210.58125 46.716875 210.7875 45.87125 211 45 C211.66 44.67 212.32 44.34 213 44 C213.33 43.01 213.66 42.02 214 41 C214.66 41 215.32 41 216 41 C216.33 39.02 216.66 37.04 217 35 C217.66 35 218.32 35 219 35 C219.33 33.02 219.66 31.04 220 29 C220.66 29 221.32 29 222 29 C222.33 25.04 222.66 21.08 223 17 C223.66 17 224.32 17 225 17 C225 12.05 225 7.1 225 2 C252.64307221 1.97660284 280.28614293 1.95898738 307.92922306 1.94818783 C320.76540013 1.94303934 333.60157103 1.93602428 346.43774414 1.92456055 C357.63036953 1.91456943 368.82299045 1.90813605 380.01562017 1.90591151 C385.93779296 1.90461191 391.85995298 1.90157378 397.78212166 1.89426994 C403.36591112 1.88743978 408.94968264 1.88539717 414.53347588 1.88689232 C416.57351148 1.88661912 418.61354774 1.88465577 420.65357971 1.88079453 C431.81711197 1.86071644 442.87179023 2.05566452 454 3 C454 3.66 454 4.32 454 5 C455.5778125 4.9690625 455.5778125 4.9690625 457.1875 4.9375 C460.32704904 4.98896802 462.96883396 5.26517187 466 6 C466 6.66 466 7.32 466 8 C468.97 8.33 471.94 8.66 475 9 C475 9.66 475 10.32 475 11 C478.96 11.495 478.96 11.495 483 12 C483 12.66 483 13.32 483 14 C484.98 14.33 486.96 14.66 489 15 C489 15.66 489 16.32 489 17 C490.4540625 17.185625 490.4540625 17.185625 491.9375 17.375 C492.948125 17.58125 493.95875 17.7875 495 18 C495.33 18.66 495.66 19.32 496 20 C496.99 20.33 497.98 20.66 499 21 C499 21.66 499 22.32 499 23 C499.7425 23.061875 500.485 23.12375 501.25 23.1875 C504.83007591 24.2452497 505.80146992 26.06862656 508 29 C508.99 29.33 509.98 29.66 511 30 C511 30.66 511 31.32 511 32 C511.99 32.33 512.98 32.66 514 33 C514 33.66 514 34.32 514 35 C514.99 35.33 515.98 35.66 517 36 C517 36.66 517 37.32 517 38 C517.99 38.33 518.98 38.66 520 39 C520 39.66 520 40.32 520 41 C520.66 41 521.32 41 522 41 C522.33 41.99 522.66 42.98 523 44 C523.825 44.61875 524.65 45.2375 525.5 45.875 C528.31924232 48.27135597 528.69973137 49.3967764 529 53 C529.99 53.33 530.98 53.66 532 54 C532 54.99 532 55.98 532 57 C532.66 57 533.32 57 534 57 C534.33 58.65 534.66 60.3 535 62 C535.66 62 536.32 62 537 62 C537.33 64.31 537.66 66.62 538 69 C538.66 69 539.32 69 540 69 C540.33 71.64 540.66 74.28 541 77 C541.66 77 542.32 77 543 77 C543.33 79.97 543.66 82.94 544 86 C544.66 86 545.32 86 546 86 C546.33 90.95 546.66 95.9 547 101 C547.66 101 548.32 101 549 101 C550.00646083 116.72576781 550.1456679 132.4088713 550.13072467 148.16330624 C550.12842843 151.75717791 550.13197091 155.35104505 550.13470459 158.94491577 C550.13911729 165.95804814 550.13820586 172.97116972 550.13529195 179.98430249 C550.13301935 185.69395534 550.13273338 191.40360519 550.13381577 197.11325836 C550.13404561 198.33938611 550.13404561 198.33938611 550.13428011 199.59028412 C550.13459989 201.25170189 550.1349241 202.91311966 550.1352527 204.57453743 C550.1380945 220.10203774 550.13484131 235.62953211 550.12945233 251.15703145 C550.12498885 264.42760727 550.125759 277.69817434 550.13037109 290.96875 C550.13574574 306.44032219 550.13781641 321.9118892 550.13475883 337.38346219 C550.13444034 339.03946765 550.13412597 340.69547311 550.13381577 342.35147858 C550.13366149 343.16590659 550.13350721 343.98033461 550.13334826 344.81944226 C550.1324915 350.50809575 550.13392778 356.19674589 550.13629532 361.88539886 C550.13912593 368.83854631 550.13828744 375.79168249 550.13301457 382.74482867 C550.13042043 386.28001236 550.1292978 389.8151774 550.13266373 393.35036087 C550.14461295 409.92695728 549.85842405 426.44420841 549 443 C548.34 443 547.68 443 547 443 C547.0309375 444.85625 547.0309375 444.85625 547.0625 446.75 C547.06766681 449.6640825 546.93015558 452.20953327 546 455 C545.34 455 544.68 455 544 455 C543.67 457.64 543.34 460.28 543 463 C542.34 463 541.68 463 541 463 C540.67 464.98 540.34 466.96 540 469 C539.34 469 538.68 469 538 469 C537.67 470.98 537.34 472.96 537 475 C536.34 475 535.68 475 535 475 C534.67 476.98 534.34 478.96 534 481 C533.34 481 532.68 481 532 481 C531.938125 481.7425 531.87625 482.485 531.8125 483.25 C530.7547503 486.83007591 528.93137344 487.80146992 526 490 C525.67 490.99 525.34 491.98 525 493 C524.34 493 523.68 493 523 493 C522.938125 493.7425 522.87625 494.485 522.8125 495.25 C521.74290323 498.87017367 519.99140387 499.77383898 517 502 C516.34 502.825 515.68 503.65 515 504.5 C512.89635814 507.12955233 510.66113666 508.9529718 508 511 C507.195625 511.86625 507.195625 511.86625 506.375 512.75 C505 514 505 514 502 514 C501.67 514.99 501.34 515.98 501 517 C500.01 517 499.02 517 498 517 C498 517.66 498 518.32 498 519 C496.23042094 521.3283935 495.18416484 521.95288806 492.3125 522.6875 C491.1678125 522.8421875 491.1678125 522.8421875 490 523 C490 523.66 490 524.32 490 525 C489.01 525.33 488.02 525.66 487 526 C486.67 526.66 486.34 527.32 486 528 C483.4375 528.625 483.4375 528.625 481 529 C481 529.66 481 530.32 481 531 C479.02 531.33 477.04 531.66 475 532 C475 532.66 475 533.32 475 534 C473.02 534.33 471.04 534.66 469 535 C469 535.66 469 536.32 469 537 C466.03 537.33 463.06 537.66 460 538 C460 538.66 460 539.32 460 540 C455.23692563 540.95261487 450.8333472 541.08333357 446 541 C446 541.66 446 542.32 446 543 C424.22 543 402.44 543 380 543 C379.67 606.69 379.34 670.38 379 736 C378.34 736 377.68 736 377 736 C376.9071875 737.051875 376.9071875 737.051875 376.8125 738.125 C375.70863425 742.03098649 373.85282173 744.14717827 371 747 C368.1875 747.875 368.1875 747.875 366 748 C366 748.66 366 749.32 366 750 C364.02 750.33 362.04 750.66 360 751 C360 751.66 360 752.32 360 753 C355.05 753 350.1 753 345 753 C345 752.34 345 751.68 345 751 C343.02 750.67 341.04 750.34 339 750 C339 749.34 339 748.68 339 748 C337.68 747.67 336.36 747.34 335 747 C335 746.34 335 745.68 335 745 C334.01 744.67 333.02 744.34 332 744 C332 743.34 332 742.68 332 742 C331.34 742 330.68 742 330 742 C329.67 740.02 329.34 738.04 329 736 C328.34 736 327.68 736 327 736 C327 672.64 327 609.28 327 544 C265.29 543.67 203.58 543.34 140 543 C140.020625 560.9025 140.04125 578.805 140.0625 597.25 C140.06459357 608.06643595 140.06598524 618.88279945 140.0546875 629.69921875 C140.05332668 631.01077124 140.05196587 632.32232372 140.05056381 633.67362022 C140.02544863 656.19080249 139.97470387 678.70767901 139.73654175 701.22375488 C139.70255476 704.43996467 139.67523536 707.65611877 139.65383911 710.87243652 C139.62853654 714.58492234 139.58887799 718.29695539 139.53687668 722.009161 C139.51266188 723.95920462 139.50222177 725.90940444 139.49234009 727.85957336 C139.47255096 729.00427597 139.45276184 730.14897858 139.43237305 731.32836914 C139.42126999 732.31148575 139.41016693 733.29460236 139.39872742 734.30751038 C138.9270612 737.49253441 137.9150815 739.42871621 136 742 C135.34 742 134.68 742 134 742 C133.67 742.99 133.34 743.98 133 745 C132.34 745 131.68 745 131 745 C130.67 745.99 130.34 746.98 130 748 C129.34 748 128.68 748 128 748 C128 748.66 128 749.32 128 750 C126.02 750.33 124.04 750.66 122 751 C122 751.66 122 752.32 122 753 C116.99691568 754.66769477 111.00308432 754.66769477 106 753 C106 752.34 106 751.68 106 751 C104.02 750.67 102.04 750.34 100 750 C100 749.34 100 748.68 100 748 C99.01 747.67 98.02 747.34 97 747 C97 746.34 97 745.68 97 745 C96.401875 744.79375 95.80375 744.5875 95.1875 744.375 C92.054081 742.40542234 91.38720117 740.42440775 90 737 C89.487623 734.03751497 89.39682549 731.09930756 89.31860352 728.09716797 C89.28544572 727.15855864 89.25228792 726.2199493 89.21812534 725.25289726 C88.74400338 709.5508151 88.87394715 693.82821785 88.89871979 678.12095642 C88.90449643 673.85594616 88.90468728 669.59094196 88.90539551 665.32592773 C88.910603 652.92561497 88.92456417 640.52530712 88.9375 628.125 C88.958125 600.36375 88.97875 572.6025 89 544 C-4.555 543.505 -4.555 543.505 -100 543 C-99.98839844 556.81359375 -99.97679687 570.6271875 -99.96484375 584.859375 C-99.95973647 593.59114602 -99.95488137 602.32291596 -99.95117188 611.0546875 C-99.94523198 624.92545948 -99.9382389 638.79622539 -99.92456055 652.66699219 C-99.91460462 662.76776771 -99.9081444 672.86853833 -99.90591151 682.96931863 C-99.90460595 688.31937279 -99.90152984 693.66941292 -99.89426994 699.01946259 C-99.88749542 704.05247767 -99.88538598 709.08547291 -99.88689232 714.11849213 C-99.88661664 715.96802885 -99.88461999 717.81756621 -99.88079453 719.667099 C-99.87583497 722.18806372 -99.87701014 724.70895304 -99.87974548 727.22991943 C-99.87537622 728.33303549 -99.87537622 728.33303549 -99.87091869 729.45843673 C-99.88069832 732.78262399 -99.96641892 735.82177724 -101 739 C-101.66 739 -102.32 739 -103 739 C-103.33 740.65 -103.66 742.3 -104 744 C-104.66 744 -105.32 744 -106 744 C-106.061875 744.598125 -106.12375 745.19625 -106.1875 745.8125 C-107.34270543 748.92266847 -109.06877187 749.60417708 -112 751 C-112.99 751 -113.98 751 -115 751 C-115 751.66 -115 752.32 -115 753 C-117.72051286 753.90683762 -119.32733006 754.12842547 -122.125 754.1328125 C-122.91390625 754.13410156 -123.7028125 754.13539063 -124.515625 754.13671875 C-125.33546875 754.13285156 -126.1553125 754.12898437 -127 754.125 C-127.81984375 754.12886719 -128.6396875 754.13273438 -129.484375 754.13671875 C-130.27328125 754.13542969 -131.0621875 754.13414062 -131.875 754.1328125 C-132.59429687 754.13168457 -133.31359375 754.13055664 -134.0546875 754.12939453 C-136.78409229 753.94784527 -138.60131949 753.33961673 -140.6875 751.5625 C-142 750 -142 750 -142 748 C-142.99 748 -143.98 748 -145 748 C-145.33 747.01 -145.66 746.02 -146 745 C-146.66 744.67 -147.32 744.34 -148 744 C-150.68888025 738.87528806 -151.43694025 734.58283766 -151.39872742 728.79322815 C-151.40537424 727.99503802 -151.41202107 727.19684789 -151.41886932 726.37447017 C-151.43743729 723.71509123 -151.43489824 721.05616465 -151.43237305 718.39672852 C-151.441394 716.48438383 -151.45172204 714.57204492 -151.46325684 712.65971375 C-151.49081376 707.47846001 -151.50010962 702.29731603 -151.50611091 697.11599851 C-151.51549793 691.69740027 -151.54170162 686.27888391 -151.56611633 680.8603363 C-151.60977591 670.60412154 -151.63832625 660.34792267 -151.66143972 650.09164327 C-151.68849424 638.41330049 -151.73240564 626.73504009 -151.77772844 615.05675614 C-151.87056699 591.0378821 -151.9422514 567.01898223 -152 543 C-152.66 543.33 -153.32 543.66 -154 544 C-155.73837351 544.09582974 -157.48042328 544.12795605 -159.22143555 544.12939453 C-160.31405197 544.13254669 -161.4066684 544.13569885 -162.53239441 544.13894653 C-163.72182144 544.1369223 -164.91124847 544.13489807 -166.13671875 544.1328125 C-167.36348831 544.13376923 -168.59025787 544.13472595 -169.85420227 544.13571167 C-173.13149764 544.13656875 -176.40874604 544.13253692 -179.68603516 544.12695312 C-182.9632226 544.12375509 -186.24039515 544.13137429 -189.51757812 544.13671875 C-214.00318513 544.1425538 -214.00318513 544.1425538 -226 543 C-226 542.34 -226 541.68 -226 541 C-229.63 540.67 -233.26 540.34 -237 540 C-237 539.34 -237 538.68 -237 538 C-239.97 537.67 -242.94 537.34 -246 537 C-246 536.34 -246 535.68 -246 535 C-247.98 534.67 -249.96 534.34 -252 534 C-252 533.34 -252 532.68 -252 532 C-253.98 531.67 -255.96 531.34 -258 531 C-258 530.34 -258 529.68 -258 529 C-258.969375 528.87625 -259.93875 528.7525 -260.9375 528.625 C-261.948125 528.41875 -262.95875 528.2125 -264 528 C-264.33 527.34 -264.66 526.68 -265 526 C-265.99 525.67 -266.98 525.34 -268 525 C-268 524.34 -268 523.68 -268 523 C-269.65 522.67 -271.3 522.34 -273 522 C-273 521.34 -273 520.68 -273 520 C-273.99 519.67 -274.98 519.34 -276 519 C-276 518.34 -276 517.68 -276 517 C-276.99 516.67 -277.98 516.34 -279 516 C-279 515.34 -279 514.68 -279 514 C-279.99 513.67 -280.98 513.34 -282 513 C-282 512.34 -282 511.68 -282 511 C-282.99 510.67 -283.98 510.34 -285 510 C-285 509.34 -285 508.68 -285 508 C-285.99 507.67 -286.98 507.34 -288 507 C-288 506.34 -288 505.68 -288 505 C-288.66 505 -289.32 505 -290 505 C-290.33 504.01 -290.66 503.02 -291 502 C-291.7734375 501.2575 -291.7734375 501.2575 -292.5625 500.5 C-294 499 -294 499 -294 496 C-294.99 495.67 -295.98 495.34 -297 495 C-297 494.01 -297 493.02 -297 492 C-297.66 492 -298.32 492 -299 492 C-299.33 490.35 -299.66 488.7 -300 487 C-300.99 486.67 -301.98 486.34 -303 486 C-303 485.01 -303 484.02 -303 483 C-303.66 483 -304.32 483 -305 483 C-305.33 481.02 -305.66 479.04 -306 477 C-306.66 477 -307.32 477 -308 477 C-308.33 474.36 -308.66 471.72 -309 469 C-309.66 469 -310.32 469 -311 469 C-311.67610423 467.10751181 -312.34050439 465.2108398 -313 463.3125 C-313.37125 462.25675781 -313.7425 461.20101563 -314.125 460.11328125 C-314.9391857 457.21637944 -315.17709796 454.98299377 -315 452 C-315.66 452 -316.32 452 -317 452 C-318.15604701 446.40568625 -318.21944917 440.8988519 -318.3105011 435.21083069 C-318.33086737 434.13111885 -318.35123363 433.05140702 -318.37221706 431.93897665 C-318.4376904 428.34358641 -318.49544135 424.74812881 -318.55200195 421.15258789 C-318.57291669 419.89721855 -318.59383142 418.64184922 -318.61537993 417.34843838 C-319.10108733 387.8616466 -319.16456886 358.37443506 -319.16725707 328.88426089 C-319.16776272 324.48311758 -319.1700805 320.08197628 -319.17275429 315.68083382 C-319.18146753 301.03202745 -319.18618573 286.3832282 -319.18542381 271.73441922 C-319.18538386 270.95750277 -319.1853439 270.18058632 -319.18530273 269.38012695 C-319.18526185 268.60221816 -319.18522097 267.82430936 -319.18517885 267.02282757 C-319.18476954 254.32622805 -319.19443472 241.62965776 -319.2084411 228.93306672 C-319.22286466 215.75067959 -319.22970879 202.56830673 -319.22884732 189.38591152 C-319.2285186 182.04185768 -319.23112391 174.69783495 -319.24202538 167.35378838 C-319.25217577 160.47565644 -319.25173493 153.59759106 -319.24450874 146.71945572 C-319.24347374 144.21873566 -319.2457601 141.71801132 -319.2518692 139.21729851 C-319.28803335 123.37460774 -318.59503446 107.765447 -317 92 C-316.34 92 -315.68 92 -315 92 C-314.96261719 91.3709375 -314.92523438 90.741875 -314.88671875 90.09375 C-314.43322879 84.18948851 -313.32023086 79.44749854 -311 74 C-310.34 74 -309.68 74 -309 74 C-308.67 72.02 -308.34 70.04 -308 68 C-307.34 68 -306.68 68 -306 68 C-305.67 66.35 -305.34 64.7 -305 63 C-304.34 63 -303.68 63 -303 63 C-302.67 61.68 -302.34 60.36 -302 59 C-301.34 59 -300.68 59 -300 59 C-299.67 57.35 -299.34 55.7 -299 54 C-298.34 54 -297.68 54 -297 54 C-296.67 52.68 -296.34 51.36 -296 50 C-295.34 50 -294.68 50 -294 50 C-293.9071875 48.88625 -293.9071875 48.88625 -293.8125 47.75 C-292.74290323 44.12982633 -290.99140387 43.22616102 -288 41 C-287.4225 40.236875 -286.845 39.47375 -286.25 38.6875 C-283.02679546 34.83756124 -279.16862549 31.79249623 -275 29 C-274.34 29 -273.68 29 -273 29 C-273 28.34 -273 27.68 -273 27 C-271.11930017 24.3879169 -270.02464205 24.00531495 -266.8125 23.3125 C-265.884375 23.209375 -264.95625 23.10625 -264 23 C-264 22.34 -264 21.68 -264 21 C-262.35 20.67 -260.7 20.34 -259 20 C-259 19.34 -259 18.68 -259 18 C-257.02 17.67 -255.04 17.34 -253 17 C-253 16.34 -253 15.68 -253 15 C-250.03 14.505 -250.03 14.505 -247 14 C-247 13.34 -247 12.68 -247 12 C-243.535 11.505 -243.535 11.505 -240 11 C-240 10.34 -240 9.68 -240 9 C-235.545 8.505 -235.545 8.505 -231 8 C-231 7.34 -231 6.68 -231 6 C-226.23692563 5.04738513 -221.8333472 4.91666643 -217 5 C-217 4.34 -217 3.68 -217 3 C-205.922621 1.8849521 -194.91865335 1.86445039 -183.79760742 1.88647461 C-181.78586325 1.88675718 -179.77411899 1.88659739 -177.76237488 1.8860321 C-172.33768871 1.88574684 -166.91302495 1.8915996 -161.48834395 1.89860606 C-155.80556971 1.90488487 -150.12279488 1.90544697 -144.4400177 1.90663147 C-133.69524124 1.90973149 -122.95047504 1.91792686 -112.20570308 1.92798096 C-99.96621627 1.9391835 -87.72672895 1.94466296 -75.48723829 1.94967639 C-50.32481986 1.96011066 -25.1624105 1.97768422 0 2 C0 1.34 0 0.68 0 0 Z " fill="#1691FF" transform="translate(397,161)"/>
<path d="M0 0 C10.89 0 21.78 0 33 0 C33 0.66 33 1.32 33 2 C33.87011719 1.98259766 33.87011719 1.98259766 34.7578125 1.96484375 C39.2998246 1.91237826 43.52713569 2.08248937 48 3 C48 3.66 48 4.32 48 5 C50.64 5.33 53.28 5.66 56 6 C56 6.66 56 7.32 56 8 C56.969375 8.12375 57.93875 8.2475 58.9375 8.375 C60.4534375 8.684375 60.4534375 8.684375 62 9 C62.33 9.66 62.66 10.32 63 11 C63.99 11.33 64.98 11.66 66 12 C66 12.66 66 13.32 66 14 C66.7425 14.061875 67.485 14.12375 68.25 14.1875 C71.83007591 15.2452497 72.80146992 17.06862656 75 20 C75.99 20.33 76.98 20.66 78 21 C78 21.66 78 22.32 78 23 C78.66 23 79.32 23 80 23 C80.33 23.99 80.66 24.98 81 26 C81.66 26.33 82.32 26.66 83 27 C83.625 29.5625 83.625 29.5625 84 32 C84.66 32 85.32 32 86 32 C86.33 34.31 86.66 36.62 87 39 C87.66 39 88.32 39 89 39 C89 40.65 89 42.3 89 44 C89.66 44 90.32 44 91 44 C91.85281617 48.42652201 92.13473146 52.61933471 92.125 57.125 C92.12757813 58.32382813 92.13015625 59.52265625 92.1328125 60.7578125 C92.02510069 63.38724796 91.78094464 65.50841473 91 68 C90.34 68 89.68 68 89 68 C89 69.65 89 71.3 89 73 C88.34 73 87.68 73 87 73 C86.67 75.31 86.34 77.62 86 80 C85.34 80 84.68 80 84 80 C83.67 81.98 83.34 83.96 83 86 C82.34 86 81.68 86 81 86 C80.67 86.99 80.34 87.98 80 89 C79.34 89 78.68 89 78 89 C77.67 89.99 77.34 90.98 77 92 C76.34 92 75.68 92 75 92 C74.67 92.99 74.34 93.98 74 95 C73.34 95 72.68 95 72 95 C71.67 96.65 71.34 98.3 71 100 C68.03 100.495 68.03 100.495 65 101 C65 101.66 65 102.32 65 103 C64.34 103 63.68 103 63 103 C63 106.3 63 109.6 63 113 C63.66 113 64.32 113 65 113 C65.33 120.59 65.66 128.18 66 136 C66.66 136 67.32 136 68 136 C68.90041311 144.02332397 69.11547323 151.92970447 69 160 C69.66 160 70.32 160 71 160 C71 160.66 71 161.32 71 162 C71.969375 162.12375 72.93875 162.2475 73.9375 162.375 C74.948125 162.58125 75.95875 162.7875 77 163 C77.33 163.66 77.66 164.32 78 165 C78.99 165.33 79.98 165.66 81 166 C81 166.66 81 167.32 81 168 C81.99 168.33 82.98 168.66 84 169 C84 169.66 84 170.32 84 171 C85.65 171.33 87.3 171.66 89 172 C89 172.66 89 173.32 89 174 C89.99 174.33 90.98 174.66 92 175 C92 175.66 92 176.32 92 177 C92.66 177 93.32 177 94 177 C94.33 177.99 94.66 178.98 95 180 C95.7734375 180.7425 95.7734375 180.7425 96.5625 181.5 C98 183 98 183 98 186 C98.66 186 99.32 186 100 186 C100.33 187.98 100.66 189.96 101 192 C101.66 192 102.32 192 103 192 C103.33 194.97 103.66 197.94 104 201 C104.66 201 105.32 201 106 201 C106.85031102 203.95497858 107.12847103 206.58918872 107.1328125 209.66015625 C107.13410156 210.53607422 107.13539063 211.41199219 107.13671875 212.31445312 C107.13285156 213.22130859 107.12898437 214.12816406 107.125 215.0625 C107.12886719 215.97322266 107.13273438 216.88394531 107.13671875 217.82226562 C107.13478516 219.13420898 107.13478516 219.13420898 107.1328125 220.47265625 C107.13168457 221.26937744 107.13055664 222.06609863 107.12939453 222.88696289 C107 225 107 225 106 228 C105.34 228 104.68 228 104 228 C103.67 229.98 103.34 231.96 103 234 C102.34 234 101.68 234 101 234 C100.67 234.99 100.34 235.98 100 237 C99.34 237 98.68 237 98 237 C97.814375 237.680625 97.62875 238.36125 97.4375 239.0625 C95.45227668 243.11926069 92.57515906 246.23701516 89 249 C88.01 249 87.02 249 86 249 C86 249.66 86 250.32 86 251 C84.35 251.33 82.7 251.66 81 252 C81 252.66 81 253.32 81 254 C78.69 254.33 76.38 254.66 74 255 C74 255.66 74 256.32 74 257 C70.37 257.33 66.74 257.66 63 258 C63 258.66 63 259.32 63 260 C57.72 260.33 52.44 260.66 47 261 C47 261.66 47 262.32 47 263 C43.04 263 39.08 263 35 263 C35 286.1 35 309.2 35 333 C34.34 333 33.68 333 33 333 C33.00222061 333.65288498 33.00444122 334.30576996 33.00672913 334.97843933 C33.02885756 341.77541558 33.04393823 348.57238158 33.05493164 355.36938477 C33.05995948 357.90584733 33.06678262 360.44230699 33.07543945 362.97875977 C33.08757274 366.62517004 33.09324384 370.27154197 33.09765625 373.91796875 C33.10281754 375.05147263 33.10797882 376.1849765 33.11329651 377.35282898 C33.11337204 378.41355118 33.11344757 379.47427338 33.11352539 380.56713867 C33.115746 381.49757492 33.11796661 382.42801117 33.12025452 383.38664246 C32.99916496 386.01814708 32.58518198 388.43509391 32 391 C31.34 391 30.68 391 30 391 C29.67 392.32 29.34 393.64 29 395 C28.34 395 27.68 395 27 395 C26.67 396.98 26.34 398.96 26 401 C25.34 401 24.68 401 24 401 C23.67 402.98 23.34 404.96 23 407 C22.34 407 21.68 407 21 407 C21 407.99 21 408.98 21 410 C18.70890403 410.08075665 16.41700733 410.13907731 14.125 410.1875 C12.84882813 410.22230469 11.57265625 410.25710938 10.2578125 410.29296875 C9.18273437 410.19628906 8.10765625 410.09960938 7 410 C5 407 5 407 5 404 C4.01 403.67 3.02 403.34 2 403 C2 401.35 2 399.7 2 398 C1.34 398 0.68 398 0 398 C-0.33 396.02 -0.66 394.04 -1 392 C-1.66 392 -2.32 392 -3 392 C-6.2528622 387.90588033 -6.50432118 383.9736206 -6.625 378.9375 C-6.65585693 378.06416016 -6.68671387 377.19082031 -6.71850586 376.29101562 C-6.78630876 374.29040728 -6.84729266 372.28956057 -6.90283203 370.28857422 C-7.0035484 366.87990702 -7.13896299 363.47374116 -7.27734375 360.06640625 C-8.47566883 327.73190524 -8.09305979 295.35104409 -8 263 C-11.3 263 -14.6 263 -18 263 C-18 262.34 -18 261.68 -18 261 C-18.58007812 261.01160156 -19.16015625 261.02320313 -19.7578125 261.03515625 C-24.2998246 261.08762174 -28.52713569 260.91751063 -33 260 C-33 259.34 -33 258.68 -33 258 C-36.96 257.67 -40.92 257.34 -45 257 C-45 256.34 -45 255.68 -45 255 C-47.64 254.67 -50.28 254.34 -53 254 C-53 253.34 -53 252.68 -53 252 C-54.98 251.67 -56.96 251.34 -59 251 C-59 250.34 -59 249.68 -59 249 C-60.32 248.67 -61.64 248.34 -63 248 C-63 247.34 -63 246.68 -63 246 C-63.99 245.67 -64.98 245.34 -66 245 C-66 244.34 -66 243.68 -66 243 C-66.99 242.67 -67.98 242.34 -69 242 C-69 241.34 -69 240.68 -69 240 C-69.99 239.67 -70.98 239.34 -72 239 C-72 238.34 -72 237.68 -72 237 C-72.66 237 -73.32 237 -74 237 C-74.33 235.35 -74.66 233.7 -75 232 C-75.66 232 -76.32 232 -77 232 C-77.33 229.69 -77.66 227.38 -78 225 C-78.66 225 -79.32 225 -80 225 C-81.81265169 217.145176 -81.43580976 208.89695369 -80 201 C-79.34 201 -78.68 201 -78 201 C-77.505 197.04 -77.505 197.04 -77 193 C-76.34 193 -75.68 193 -75 193 C-74.67 191.02 -74.34 189.04 -74 187 C-73.34 187 -72.68 187 -72 187 C-71.505 185.02 -71.505 185.02 -71 183 C-70.34 183 -69.68 183 -69 183 C-68.67 182.01 -68.34 181.02 -68 180 C-67.34 180 -66.68 180 -66 180 C-65.9071875 178.88625 -65.9071875 178.88625 -65.8125 177.75 C-64.74290323 174.12982633 -62.99140387 173.22616102 -60 171 C-59.0409375 169.6696875 -59.0409375 169.6696875 -58.0625 168.3125 C-55.48558078 165.42322693 -53.78257924 165.25790313 -50 165 C-50 164.34 -50 163.68 -50 163 C-48.02 162.67 -46.04 162.34 -44 162 C-44 161.34 -44 160.68 -44 160 C-43.34 160 -42.68 160 -42 160 C-42.01160156 158.85144531 -42.02320313 157.70289063 -42.03515625 156.51953125 C-42.16841455 137.52509873 -42.16841455 137.52509873 -41 129 C-40.67 128.67 -40.34 128.34 -40 128 C-39.77210574 126.22309891 -39.60510212 124.43830032 -39.46484375 122.65234375 C-39.37783203 121.57275391 -39.29082031 120.49316406 -39.20117188 119.38085938 C-39.11416016 118.24455078 -39.02714844 117.10824219 -38.9375 115.9375 C-38.84662109 114.79732422 -38.75574219 113.65714844 -38.66210938 112.48242188 C-38.43735454 109.65524259 -38.21684289 106.82779536 -38 104 C-37.34 104 -36.68 104 -36 104 C-36 103.01 -36 102.02 -36 101 C-38.97 100.505 -38.97 100.505 -42 100 C-42 99.34 -42 98.68 -42 98 C-43.11375 97.9071875 -43.11375 97.9071875 -44.25 97.8125 C-47.87017367 96.74290323 -48.77383898 94.99140387 -51 92 C-51.886875 91.34 -52.77375 90.68 -53.6875 90 C-56.35802248 87.69035894 -56.71241619 86.45100574 -57 83 C-57.66 83 -58.32 83 -59 83 C-59.33 80.69 -59.66 78.38 -60 76 C-60.66 76 -61.32 76 -62 76 C-63.11129621 70.63755481 -63.14903589 65.44813597 -63.125 60 C-63.13080078 58.68515625 -63.13080078 58.68515625 -63.13671875 57.34375 C-63.12984855 52.78193451 -62.93012655 48.48822972 -62 44 C-61.34 44 -60.68 44 -60 44 C-59.67 41.36 -59.34 38.72 -59 36 C-58.34 36 -57.68 36 -57 36 C-56.67 34.68 -56.34 33.36 -56 32 C-55.34 32 -54.68 32 -54 32 C-53.9071875 30.88625 -53.9071875 30.88625 -53.8125 29.75 C-52.74290323 26.12982633 -50.99140387 25.22616102 -48 23 C-46.63755204 21.35704805 -45.30135125 19.69175663 -44 18 C-41.59149206 15.06790338 -39.74815151 14.50650696 -36 14 C-36 13.34 -36 12.68 -36 12 C-34.02 11.67 -32.04 11.34 -30 11 C-30 10.34 -30 9.68 -30 9 C-28.02 8.67 -26.04 8.34 -24 8 C-24 7.34 -24 6.68 -24 6 C-20.7 5.67 -17.4 5.34 -14 5 C-14 4.34 -14 3.68 -14 3 C-9.32798795 1.79431947 -4.78503708 1.90617574 0 2 C0 1.34 0 0.68 0 0 Z " fill="#1691FF" transform="translate(498,108)"/>
<path d="M0 0 C1.12569901 -0.00281982 2.25139801 -0.00563965 3.41120911 -0.00854492 C4.63680542 -0.00652069 5.86240173 -0.00449646 7.12513733 -0.00241089 C8.42320816 -0.00416321 9.72127899 -0.00591553 11.0586853 -0.00772095 C14.61240728 -0.01227343 18.16610017 -0.01051458 21.71982265 -0.00734186 C25.44327163 -0.00480645 29.16671815 -0.00715914 32.89016724 -0.00872803 C39.14362535 -0.01054649 45.39707164 -0.0081521 51.65052795 -0.00338745 C58.87311594 0.00205217 66.09567569 0.00029339 73.31826299 -0.00521386 C79.52562734 -0.00975701 85.73298321 -0.01038957 91.94034868 -0.00777519 C95.64494925 -0.00621873 99.34953657 -0.0060013 103.05413628 -0.00931168 C107.18589312 -0.01274592 111.31760157 -0.007981 115.44935608 -0.00241089 C116.67292816 -0.00443512 117.89650024 -0.00645935 119.15715027 -0.00854492 C120.2856691 -0.0057251 121.41418793 -0.00290527 122.5769043 0 C123.55304152 0.00037703 124.52917875 0.00075405 125.5348959 0.0011425 C128.53967105 0.13536965 131.39744413 0.57610508 134.35194397 1.12698364 C134.35194397 1.78698364 134.35194397 2.44698364 134.35194397 3.12698364 C135.09444397 3.18885864 135.83694397 3.25073364 136.60194397 3.31448364 C140.21260126 4.38126875 141.19653733 6.10941434 143.35194397 9.12698364 C143.92944397 9.66323364 144.50694397 10.19948364 145.10194397 10.75198364 C146.35194397 12.12698364 146.35194397 12.12698364 146.35194397 15.12698364 C147.01194397 15.12698364 147.67194397 15.12698364 148.35194397 15.12698364 C149.42621868 18.34980777 149.48524026 20.74209518 149.47694397 24.12698364 C149.47952209 25.17885864 149.48210022 26.23073364 149.48475647 27.31448364 C149.35194397 30.12698364 149.35194397 30.12698364 148.35194397 33.12698364 C147.69194397 33.12698364 147.03194397 33.12698364 146.35194397 33.12698364 C146.02194397 35.10698364 145.69194397 37.08698364 145.35194397 39.12698364 C144.69194397 39.12698364 144.03194397 39.12698364 143.35194397 39.12698364 C143.35194397 39.78698364 143.35194397 40.44698364 143.35194397 41.12698364 C140.38194397 41.62198364 140.38194397 41.62198364 137.35194397 42.12698364 C137.35194397 42.78698364 137.35194397 43.44698364 137.35194397 44.12698364 C130.722899 47.78831588 124.46571695 47.5708598 117.01625061 47.56277466 C115.66860116 47.5717623 114.32095939 47.58197285 112.97332764 47.5933075 C109.32865142 47.61970538 105.68418676 47.62683647 102.03942418 47.62875485 C99.75899215 47.63089281 97.47861328 47.63730778 95.1981945 47.64524651 C87.23321514 47.67296312 79.26838598 47.68525628 71.30335999 47.68289185 C63.89305389 47.6810891 56.48340266 47.71276223 49.07326227 47.76012284 C42.69764614 47.79941126 36.32224359 47.81544104 29.94650739 47.81352562 C26.14439187 47.81276264 22.34285924 47.82120513 18.54086494 47.85305977 C14.96426203 47.88221124 11.38879509 47.88227032 7.81215096 47.86050987 C5.8837798 47.85590287 3.9554079 47.88083789 2.02720642 47.90682983 C-5.70878747 47.82305812 -10.11823027 46.60694851 -15.64805603 41.12698364 C-16.17081588 40.65515939 -16.69357573 40.18333513 -17.23217678 39.69721317 C-18.64805603 38.37698364 -18.64805603 38.37698364 -20.64805603 36.12698364 C-20.64805603 35.46698364 -20.64805603 34.80698364 -20.64805603 34.12698364 C-21.30805603 34.12698364 -21.96805603 34.12698364 -22.64805603 34.12698364 C-22.97805603 31.15698364 -23.30805603 28.18698364 -23.64805603 25.12698364 C-24.30805603 25.12698364 -24.96805603 25.12698364 -25.64805603 25.12698364 C-25.64805603 22.81698364 -25.64805603 20.50698364 -25.64805603 18.12698364 C-24.98805603 18.12698364 -24.32805603 18.12698364 -23.64805603 18.12698364 C-23.31805603 16.14698364 -22.98805603 14.16698364 -22.64805603 12.12698364 C-21.98805603 12.12698364 -21.32805603 12.12698364 -20.64805603 12.12698364 C-20.40055603 11.32260864 -20.15305603 10.51823364 -19.89805603 9.68948364 C-19.48555603 8.84385864 -19.07305603 7.99823364 -18.64805603 7.12698364 C-16.58555603 6.50198364 -16.58555603 6.50198364 -14.64805603 6.12698364 C-14.31805603 5.13698364 -13.98805603 4.14698364 -13.64805603 3.12698364 C-12.65805603 3.12698364 -11.66805603 3.12698364 -10.64805603 3.12698364 C-10.64805603 2.46698364 -10.64805603 1.80698364 -10.64805603 1.12698364 C-7.03553043 0.29904001 -3.7030195 0.00143082 0 0 Z " fill="#1691FF" transform="translate(672.6480560302734,394.8730163574219)"/>
<path d="M0 0 C1.17073059 -0.00281982 2.34146118 -0.00563965 3.54766846 -0.00854492 C5.46865608 -0.00550858 5.46865608 -0.00550858 7.42845154 -0.00241089 C8.79361518 -0.00376622 10.15877846 -0.00554689 11.52394104 -0.00772095 C15.22834204 -0.01227917 18.93271518 -0.01051244 22.63711667 -0.00734186 C26.51278842 -0.00481048 30.38845779 -0.00715793 34.26412964 -0.00872803 C40.77154468 -0.01054722 47.27894837 -0.00814972 53.78636169 -0.00338745 C61.31288803 0.00205697 68.83938729 0.0002902 76.36591297 -0.00521386 C82.82628663 -0.00974936 89.28665213 -0.01039345 95.74702686 -0.00777519 C99.60636555 -0.00621513 103.4656915 -0.00601131 107.32502937 -0.00931168 C110.95211304 -0.0121968 114.57916173 -0.01020284 118.20624161 -0.00441742 C120.17490846 -0.00246099 122.14357827 -0.00543813 124.11224365 -0.00854492 C125.28015442 -0.0057251 126.44806519 -0.00290527 127.65136719 0 C128.66844033 0.00037703 129.68551348 0.00075405 130.73340702 0.0011425 C133.26219177 0.12698364 133.26219177 0.12698364 136.26219177 1.12698364 C136.26219177 1.78698364 136.26219177 2.44698364 136.26219177 3.12698364 C138.24219177 3.62198364 138.24219177 3.62198364 140.26219177 4.12698364 C140.26219177 4.78698364 140.26219177 5.44698364 140.26219177 6.12698364 C141.25219177 6.45698364 142.24219177 6.78698364 143.26219177 7.12698364 C143.26219177 7.78698364 143.26219177 8.44698364 143.26219177 9.12698364 C144.25219177 9.45698364 145.24219177 9.78698364 146.26219177 10.12698364 C146.26219177 11.11698364 146.26219177 12.10698364 146.26219177 13.12698364 C146.92219177 13.12698364 147.58219177 13.12698364 148.26219177 13.12698364 C148.26219177 18.07698364 148.26219177 23.02698364 148.26219177 28.12698364 C147.60219177 28.12698364 146.94219177 28.12698364 146.26219177 28.12698364 C145.93219177 30.10698364 145.60219177 32.08698364 145.26219177 34.12698364 C144.60219177 34.12698364 143.94219177 34.12698364 143.26219177 34.12698364 C142.92187927 34.93135864 142.92187927 34.93135864 142.57469177 35.75198364 C140.79086322 38.97986388 138.84408212 41.48641397 136.26219177 44.12698364 C132.94969177 45.00198364 132.94969177 45.00198364 130.26219177 45.12698364 C130.26219177 45.78698364 130.26219177 46.44698364 130.26219177 47.12698364 C85.38219177 47.12698364 40.50219177 47.12698364 -5.73780823 47.12698364 C-5.73780823 46.46698364 -5.73780823 45.80698364 -5.73780823 45.12698364 C-6.72780823 45.12698364 -7.71780823 45.12698364 -8.73780823 45.12698364 C-13.48880846 44.48574435 -16.01170698 41.44870447 -19.23390198 38.13479614 C-20.73780823 36.12698364 -20.73780823 36.12698364 -20.73780823 33.12698364 C-21.39780823 33.12698364 -22.05780823 33.12698364 -22.73780823 33.12698364 C-23.06780823 30.15698364 -23.39780823 27.18698364 -23.73780823 24.12698364 C-24.39780823 24.12698364 -25.05780823 24.12698364 -25.73780823 24.12698364 C-25.73780823 22.14698364 -25.73780823 20.16698364 -25.73780823 18.12698364 C-25.07780823 18.12698364 -24.41780823 18.12698364 -23.73780823 18.12698364 C-23.73780823 16.47698364 -23.73780823 14.82698364 -23.73780823 13.12698364 C-22.74780823 12.79698364 -21.75780823 12.46698364 -20.73780823 12.12698364 C-20.40780823 10.47698364 -20.07780823 8.82698364 -19.73780823 7.12698364 C-18.08780823 6.79698364 -16.43780823 6.46698364 -14.73780823 6.12698364 C-14.40780823 5.13698364 -14.07780823 4.14698364 -13.73780823 3.12698364 C-12.41780823 3.12698364 -11.09780823 3.12698364 -9.73780823 3.12698364 C-9.73780823 2.46698364 -9.73780823 1.80698364 -9.73780823 1.12698364 C-6.43386079 0.13650911 -3.44200133 0.00127547 0 0 Z " fill="#1691FF" transform="translate(227.73780822753906,394.8730163574219)"/>
<path d="M0 0 C44.88 0 89.76 0 136 0 C136 0.66 136 1.32 136 2 C137.98 2.33 139.96 2.66 142 3 C142 3.66 142 4.32 142 5 C143.98 5.495 143.98 5.495 146 6 C146 6.66 146 7.32 146 8 C146.99 8.33 147.98 8.66 149 9 C149 9.66 149 10.32 149 11 C149.66 11 150.32 11 151 11 C151.33 12.98 151.66 14.96 152 17 C152.66 17 153.32 17 154 17 C154 19.97 154 22.94 154 26 C153.34 26 152.68 26 152 26 C151.67 27.98 151.34 29.96 151 32 C150.34 32 149.68 32 149 32 C148.67 33.98 148.34 35.96 148 38 C147.34 38 146.68 38 146 38 C145.67 38.99 145.34 39.98 145 41 C144.34 41 143.68 41 143 41 C142.67 41.99 142.34 42.98 142 44 C141.34 44 140.68 44 140 44 C140 44.66 140 45.32 140 46 C136.87178273 47.04273909 134.70234115 47.12575973 131.42041016 47.12698364 C129.6789975 47.13121338 129.6789975 47.13121338 127.90240479 47.13552856 C126.62750183 47.13350433 125.35259888 47.1314801 124.0390625 47.12939453 C122.68389845 47.13074944 121.32873476 47.13252988 119.97357178 47.13470459 C116.29183807 47.13926821 112.61013234 47.13749375 108.92839813 47.1343255 C105.07807845 47.13179639 101.22776118 47.13414098 97.37744141 47.13571167 C90.91112843 47.13753175 84.44482687 47.13513128 77.97851562 47.13037109 C70.49915718 47.12492878 63.019826 47.12669155 55.54046822 47.1321975 C49.1225772 47.13673322 42.70469439 47.13737692 36.28680229 47.13475883 C32.45204089 47.13319859 28.61729232 47.13299539 24.78253174 47.13629532 C21.17762219 47.13918068 17.57274784 47.13718606 13.9678421 47.13140106 C12.01109363 47.12944468 10.05434219 47.13242173 8.09759521 47.13552856 C6.93665344 47.13270874 5.77571167 47.12988892 4.57958984 47.12698364 C3.06309341 47.1264181 3.06309341 47.1264181 1.51596069 47.12584114 C-1 47 -1 47 -4 46 C-4 45.34 -4 44.68 -4 44 C-5.65 43.67 -7.3 43.34 -9 43 C-9 42.34 -9 41.68 -9 41 C-9.99 40.67 -10.98 40.34 -12 40 C-12 39.34 -12 38.68 -12 38 C-12.66 38 -13.32 38 -14 38 C-14.33 36.35 -14.66 34.7 -15 33 C-15.66 33 -16.32 33 -17 33 C-18.00449785 29.64899517 -18.16548829 26.55355702 -18.1875 23.0625 C-18.20167969 22.04285156 -18.21585938 21.02320313 -18.23046875 19.97265625 C-17.88271498 15.48722202 -16.04609472 11.94603982 -14 8 C-13.34 8 -12.68 8 -12 8 C-12 7.34 -12 6.68 -12 6 C-10.75539217 5.32332002 -9.50403104 4.65905281 -8.25 4 C-7.55390625 3.62875 -6.8578125 3.2575 -6.140625 2.875 C-4 2 -4 2 0 2 C0 1.34 0 0.68 0 0 Z " fill="#1691FF" transform="translate(222,304)"/>
<path d="M0 0 C1.19315323 -0.00281982 2.38630646 -0.00563965 3.61561584 -0.00854492 C5.58171814 -0.00550858 5.58171814 -0.00550858 7.58753967 -0.00241089 C8.98048956 -0.00376578 10.37343909 -0.0055462 11.76638794 -0.00772095 C15.55149103 -0.01228527 19.33656691 -0.0105097 23.12167048 -0.00734186 C27.08096182 -0.00481261 31.04025081 -0.00715743 34.99954224 -0.00872803 C41.64997273 -0.01054828 48.30039212 -0.00814741 54.95082092 -0.00338745 C62.64033299 0.00205266 70.32981854 0.00029376 78.01932997 -0.00521386 C84.61897602 -0.00975176 91.21861409 -0.01039214 97.81826121 -0.00777519 C101.76092467 -0.00621586 105.70357567 -0.0060092 109.64623833 -0.00931168 C113.3537476 -0.01220012 117.06122268 -0.01019674 120.76872826 -0.00441742 C122.77895943 -0.00246402 124.7891935 -0.00543563 126.79942322 -0.00854492 C128.5933828 -0.00431519 128.5933828 -0.00431519 130.42358398 0 C131.98294379 0.00056554 131.98294379 0.00056554 133.57380581 0.0011425 C135.97266275 0.11288685 137.98489365 0.43736791 140.27528381 1.12698364 C140.27528381 1.78698364 140.27528381 2.44698364 140.27528381 3.12698364 C141.03840881 3.23010864 141.80153381 3.33323364 142.58778381 3.43948364 C145.53279665 4.19285902 146.52737737 4.67991462 148.27528381 7.12698364 C148.96278381 9.81448364 148.96278381 9.81448364 149.27528381 12.12698364 C149.93528381 12.12698364 150.59528381 12.12698364 151.27528381 12.12698364 C152.11358677 15.04773761 152.41055742 17.65363147 152.40028381 20.68948364 C152.40286194 21.45389771 152.40544006 22.21831177 152.40809631 23.00588989 C152.27528381 25.12698364 152.27528381 25.12698364 151.27528381 28.12698364 C150.61528381 28.12698364 149.95528381 28.12698364 149.27528381 28.12698364 C148.94528381 30.10698364 148.61528381 32.08698364 148.27528381 34.12698364 C147.61528381 34.12698364 146.95528381 34.12698364 146.27528381 34.12698364 C145.94528381 35.11698364 145.61528381 36.10698364 145.27528381 37.12698364 C144.61528381 37.12698364 143.95528381 37.12698364 143.27528381 37.12698364 C142.90403381 38.08604614 142.90403381 38.08604614 142.52528381 39.06448364 C141.27528381 41.12698364 141.27528381 41.12698364 139.15028381 41.87698364 C138.53153381 41.95948364 137.91278381 42.04198364 137.27528381 42.12698364 C137.27528381 42.78698364 137.27528381 43.44698364 137.27528381 44.12698364 C130.59468752 45.34454261 123.97480173 45.28912718 117.19911194 45.3039856 C115.89260178 45.31055679 114.58609161 45.31712799 113.23999023 45.32389832 C108.92885031 45.34481086 104.61771052 45.35528314 100.30653381 45.36526489 C98.81740298 45.36931612 97.32827232 45.37343315 95.83914185 45.37761497 C88.84619537 45.39663215 81.85325927 45.41087491 74.86029196 45.41922694 C66.80349639 45.42901083 58.74697471 45.45537467 50.69027567 45.49572784 C44.44973475 45.52590737 38.20927235 45.54069722 31.96865988 45.54400796 C28.24661143 45.5463547 24.52485678 45.55526716 20.80288696 45.58046913 C16.65223442 45.60812504 12.50219457 45.60391317 8.35145569 45.59695435 C7.12527023 45.6097644 5.89908478 45.62257446 4.63574219 45.63577271 C-2.04180281 45.59493516 -6.28801501 45.12055446 -11.72471619 41.12698364 C-11.72471619 40.46698364 -11.72471619 39.80698364 -11.72471619 39.12698364 C-12.38471619 39.12698364 -13.04471619 39.12698364 -13.72471619 39.12698364 C-15.07858554 37.47695536 -16.41149761 35.80954494 -17.72471619 34.12698364 C-18.38471619 33.79698364 -19.04471619 33.46698364 -19.72471619 33.12698364 C-20.31827232 30.47837937 -20.46680887 27.83501042 -20.72471619 25.12698364 C-21.38471619 25.12698364 -22.04471619 25.12698364 -22.72471619 25.12698364 C-23.0322432 19.2839704 -22.6537845 15.37910614 -19.72471619 10.12698364 C-17.22471619 7.87698364 -17.22471619 7.87698364 -14.72471619 6.12698364 C-14.18846619 5.54948364 -13.65221619 4.97198364 -13.09971619 4.37698364 C-11.72471619 3.12698364 -11.72471619 3.12698364 -8.72471619 3.12698364 C-8.72471619 2.46698364 -8.72471619 1.80698364 -8.72471619 1.12698364 C-5.55676796 0.0710009 -3.3272156 0.00120713 0 0 Z " fill="#1691FF" transform="translate(669.7247161865234,486.8730163574219)"/>
<path d="M0 0 C2.64 0 5.28 0 8 0 C8 0.66 8 1.32 8 2 C8.66206609 1.99907821 9.32413218 1.99815641 10.00626087 1.99720669 C26.10520445 1.97513603 42.20414278 1.9585809 58.30309772 1.94818783 C66.08838252 1.94302842 73.87365723 1.93599245 81.65893555 1.92456055 C88.44345153 1.9146029 95.22796021 1.90814399 102.0124833 1.90591151 C105.60584332 1.90460624 109.19918245 1.90153198 112.79253578 1.89426994 C116.800909 1.88623465 120.80924571 1.88600956 124.81762695 1.88647461 C126.0130864 1.88287933 127.20854584 1.87928406 128.44023132 1.87557983 C130.07455612 1.87764183 130.07455612 1.87764183 131.74189758 1.87974548 C132.69042256 1.87882369 133.63894754 1.8779019 134.61621571 1.87695217 C137 2 137 2 140 3 C140.33 3.66 140.66 4.32 141 5 C141.99 5.33 142.98 5.66 144 6 C144 6.66 144 7.32 144 8 C144.99 8.33 145.98 8.66 147 9 C147 9.66 147 10.32 147 11 C147.66 11 148.32 11 149 11 C149.33 11.99 149.66 12.98 150 14 C150.99 14.495 150.99 14.495 152 15 C153.66119986 20.31583955 153.75499656 26.73501031 152 32 C151.34 32 150.68 32 150 32 C149.896875 32.556875 149.79375 33.11375 149.6875 33.6875 C148.85821592 36.4769101 147.65700944 38.6139064 146 41 C145.34 41 144.68 41 144 41 C144 41.66 144 42.32 144 43 C143.01 43.33 142.02 43.66 141 44 C140.67 44.66 140.34 45.32 140 46 C136.84218618 47.05260461 134.60524038 47.13349842 131.28874207 47.14717102 C129.5033477 47.15790398 129.5033477 47.15790398 127.68188477 47.16885376 C125.72049561 47.17288712 125.72049561 47.17288712 123.71948242 47.17700195 C122.32977631 47.1832678 120.94007187 47.18991471 119.55036926 47.19691467 C114.98541426 47.21794133 110.42045898 47.22831507 105.85546875 47.23828125 C104.2833638 47.24232919 102.71125903 47.24644612 101.13915443 47.25063133 C93.75375319 47.26967916 86.36836193 47.2839116 78.98294085 47.2922433 C70.45972744 47.3020176 61.93677359 47.32834366 53.41365165 47.36874419 C46.82416539 47.39890664 40.23475355 47.41371225 33.6451996 47.41702431 C29.71018442 47.41937448 25.77544668 47.42833041 21.8405056 47.45348549 C18.13779214 47.47677403 14.43553865 47.48099661 10.73277092 47.47072411 C8.73004086 47.46999309 6.72733412 47.48907838 4.72470093 47.50878906 C-6.44974092 47.44405908 -6.44974092 47.44405908 -11 43 C-11 42.34 -11 41.68 -11 41 C-11.99 40.67 -12.98 40.34 -14 40 C-14 39.34 -14 38.68 -14 38 C-14.66 38 -15.32 38 -16 38 C-16.33 36.02 -16.66 34.04 -17 32 C-17.66 32 -18.32 32 -19 32 C-19.19644384 30.10507254 -19.38177288 28.20899097 -19.5625 26.3125 C-19.71912109 24.72888672 -19.71912109 24.72888672 -19.87890625 23.11328125 C-19.99277552 20.18573914 -19.70848415 17.82868856 -19 15 C-18.34 15 -17.68 15 -17 15 C-16.67 13.68 -16.34 12.36 -16 11 C-15.34 11 -14.68 11 -14 11 C-13.7525 10.195625 -13.505 9.39125 -13.25 8.5625 C-12 6 -12 6 -9.875 5.1875 C-9.25625 5.125625 -8.6375 5.06375 -8 5 C-8 4.34 -8 3.68 -8 3 C-5.36 2.67 -2.72 2.34 0 2 C0 1.34 0 0.68 0 0 Z " fill="#1691FF" transform="translate(669,304)"/>
<path d="M0 0 C0.99 0 1.98 0 3 0 C3 0.66 3 1.32 3 2 C5.97 2.33 8.94 2.66 12 3 C12 3.66 12 4.32 12 5 C12.99 5.33 13.98 5.66 15 6 C15 6.66 15 7.32 15 8 C15.99 8.33 16.98 8.66 18 9 C18 9.66 18 10.32 18 11 C18.99 11.33 19.98 11.66 21 12 C21 13.65 21 15.3 21 17 C21.66 17 22.32 17 23 17 C23 19.97 23 22.94 23 26 C22.34 26 21.68 26 21 26 C20.67 27.98 20.34 29.96 20 32 C19.34 32 18.68 32 18 32 C17.67 33.32 17.34 34.64 17 36 C16.34 36 15.68 36 15 36 C14.67 36.99 14.34 37.98 14 39 C13.34 39 12.68 39 12 39 C11.67 40.32 11.34 41.64 11 43 C8.03 43.495 8.03 43.495 5 44 C5 44.66 5 45.32 5 46 C-11.61635351 46.88411452 -28.18649844 47.14896452 -44.82421875 47.1328125 C-47.31525176 47.13348818 -49.80628471 47.13446038 -52.2973175 47.13571167 C-57.46294801 47.13717105 -62.62856101 47.13508801 -67.79418945 47.13037109 C-74.41715445 47.12461753 -81.04007942 47.12799903 -87.66304302 47.13394356 C-92.78186854 47.13754864 -97.90068447 47.13641181 -103.01951027 47.13381577 C-105.4639874 47.13314928 -107.9084654 47.13396518 -110.35294151 47.13629532 C-113.74793207 47.13882707 -117.14285621 47.13497638 -120.5378418 47.12939453 C-121.54396011 47.13141876 -122.55007843 47.13344299 -123.58668518 47.13552856 C-124.50974457 47.13270874 -125.43280396 47.12988892 -126.38383484 47.12698364 C-127.1835757 47.12660662 -127.98331656 47.12622959 -128.80729198 47.12584114 C-130.99096409 47.00051858 -132.9022695 46.60311007 -135 46 C-135 45.34 -135 44.68 -135 44 C-136.65 43.67 -138.3 43.34 -140 43 C-140 42.34 -140 41.68 -140 41 C-140.66 41 -141.32 41 -142 41 C-146 36.64705882 -146 36.64705882 -146 33 C-146.66 33 -147.32 33 -148 33 C-149.1668861 29.30486069 -149.13310829 25.79299017 -149.125 21.9375 C-149.12757813 20.70902344 -149.13015625 19.48054688 -149.1328125 18.21484375 C-149 15 -149 15 -148 12 C-147.34 12 -146.68 12 -146 12 C-145.67 10.68 -145.34 9.36 -145 8 C-144.34 8 -143.68 8 -143 8 C-143 7.34 -143 6.68 -143 6 C-135.88480737 1.57280862 -129.95498266 1.44965314 -121.69921875 1.54589844 C-119.72236839 1.54502228 -119.72236839 1.54502228 -117.70558167 1.54412842 C-114.11297302 1.54298644 -110.52090471 1.56641092 -106.92842102 1.59442425 C-103.16617615 1.61952482 -99.40391724 1.62178669 -95.64160156 1.62652588 C-88.52668142 1.63893036 -81.41200878 1.67171741 -74.29719734 1.71192384 C-66.19321072 1.75672058 -58.08921194 1.77864839 -49.98513222 1.79870558 C-33.32327688 1.84045256 -16.66167008 1.91075498 0 2 C0 1.34 0 0.68 0 0 Z " fill="#1691FF" transform="translate(353,485)"/>
</svg>
